<?xml version="1.0" standalone="no"?><!DOCTYPE svg PUBLIC "-//W3C//DTD SVG 1.1//EN" "http://www.w3.org/Graphics/SVG/1.1/DTD/svg11.dtd"><svg t="1481106342419" class="icon" style="" viewBox="0 0 1024 1024" version="1.1" xmlns="http://www.w3.org/2000/svg" p-id="5007" xmlns:xlink="http://www.w3.org/1999/xlink" width="48" height="48"><defs><style type="text/css"></style></defs><path d="M825.6 364.8m-25.6 0a0.4 0.4 0 1 0 51.2 0 0.4 0.4 0 1 0-51.2 0Z" p-id="5008" fill="#fff100"></path><path d="M780.8 288m-38.4 0a0.6 0.6 0 1 0 76.8 0 0.6 0.6 0 1 0-76.8 0Z" p-id="5009" fill="#fff100"></path><path d="M691.2 224m-44.8 0a0.7 0.7 0 1 0 89.6 0 0.7 0.7 0 1 0-89.6 0Z" p-id="5010" fill="#fff100"></path><path d="M582.4 185.6m-57.6 0a0.9 0.9 0 1 0 115.2 0 0.9 0.9 0 1 0-115.2 0Z" p-id="5011" fill="#fff100"></path><path d="M441.6 204.8m-64 0a1 1 0 1 0 128 0 1 1 0 1 0-128 0Z" p-id="5012" fill="#fff100"></path><path d="M313.6 313.6m-83.2 0a1.3 1.3 0 1 0 166.4 0 1.3 1.3 0 1 0-166.4 0Z" p-id="5013" fill="#fff100"></path><path d="M243.2 499.2m-83.2 0a1.3 1.3 0 1 0 166.4 0 1.3 1.3 0 1 0-166.4 0Z" p-id="5014" fill="#fff100"></path><path d="M320 704m-96 0a1.5 1.5 0 1 0 192 0 1.5 1.5 0 1 0-192 0Z" p-id="5015" fill="#fff100"></path><path d="M544 787.2m-102.4 0a1.6 1.6 0 1 0 204.8 0 1.6 1.6 0 1 0-204.8 0Z" p-id="5016" fill="#fff100"></path><path d="M755.2 646.4m-115.2 0a1.8 1.8 0 1 0 230.4 0 1.8 1.8 0 1 0-230.4 0Z" p-id="5017" fill="#fff100"></path></svg>